{"title":"Love.[Amour].2012.BRRip.AC3.HORiZON-ArtSubs","uid":7858198,"size":1913278464,"categoryP":"video","categoryS":"movies","magnet":"?xt=urn:btih:67f8243118af7657a36d580b7cac5f302cb95e54&amp;dn=Love.%5BAmour%5D.2012.BRRip.AC3.HORiZON-ArtSubs&amp;tr=udp%3A%2F%2Ftracker.openbittorrent.com%3A80&amp;tr=udp%3A%2F%2Fopen.demonii.com%3A1337&amp;tr=udp%3A%2F%2Ftracker.coppersurfer.tk%3A6969&amp;tr=udp%3A%2F%2Fexodus.desync.com%3A6969","seeders":73,"leechers":5,"uploader":"lletaif","files":1,"time":1353843783,"description":"Plot: Georges and Anne are in their eighties. They are cultivated, retired music teachers. Their daughter, who is also a musician, lives abroad with her family. One day, Anne has an attack. The couple's bond of love is severely tested. Win Palm D`Or in Cannes Film Festival 2012.\n\nDirector:\nMichael Haneke\n\nWriter:\nMichael Haneke (screenplay)\n\nStars:\nJean-Louis Trintignant, Emmanuelle Riva and Isabelle Huppert\n\nImdb: http://www.imdb.com/title/tt1602620/\n\nRip Specs:\n\nGeneral\nComplete name                    : Love.[Amour].2012.BRRip.AC3.HORiZON-ArtSubs.avi\nFormat                           : AVI\nFormat/Info                      : Audio Video Interleave\nFile size                        : 1.78 GiB\nDuration                         : 2h 1mn\nOverall bit rate                 : 2 093 Kbps\nWriting application              : FairUse Wizard - http://fairusewizard.com\nWriting library                  : The best and REALLY easy backup tool\n\nVideo\nID                               : 0\nFormat                           : MPEG-4 Visual\nFormat profile                   : Advanced Simple@L5\nFormat settings, BVOP            : 1\nFormat settings, QPel            : No\nFormat settings, GMC             : No warppoints\nFormat settings, Matrix          : Default (MPEG)\nMuxing mode                      : Packed bitstream\nCodec ID                         : XVID\nCodec ID/Hint                    : XviD\nDuration                         : 2h 1mn\nBit rate                         : 1 699 Kbps\nWidth                            : 688 pixels\nHeight                           : 368 pixels\nDisplay aspect ratio             : 1.870\nFrame rate                       : 25.000 fps\nColor space                      : YUV\nChroma subsampling               : 4:2:0\nBit depth                        : 8 bits\nScan type                        : Progressive\nCompression mode                 : Lossy\nBits/(Pixel*Frame)               : 0.268\nStream size                      : 1.45 GiB (81%)\nWriting library                  : XviD 1.2.0.dev47 (UTC 2006-11-01)\n\nAudio\nID                               : 1\nFormat                           : AC-3\nFormat/Info                      : Audio Coding 3\nMode extension                   : CM (complete main)\nCodec ID                         : 2000\nDuration                         : 2h 1mn\nBit rate mode                    : Constant\nBit rate                         : 384 Kbps\nChannel(s)                       : 6 channels\nChannel positions                : Front: L C R, Side: L R, LFE\nSampling rate                    : 48.0 KHz\nBit depth                        : 16 bits\nCompression mode                 : Lossy\nStream size                      : 335 MiB (18%)\nAlignment                        : Split accross interleaves\nInterleave, duration             : 40 ms (1.00 video frame)\nInterleave, preload duration     : 500 ms\n\n\n","torrent":{"xt":"urn:btih:67f8243118af7657a36d580b7cac5f302cb95e54","amp;dn":"Love.%5BAmour%5D.2012.BRRip.AC3.HORiZON-ArtSubs","amp;tr":["udp%3A%2F%2Ftracker.openbittorrent.com%3A80","udp%3A%2F%2Fopen.demonii.com%3A1337","udp%3A%2F%2Ftracker.coppersurfer.tk%3A6969","udp%3A%2F%2Fexodus.desync.com%3A6969"],"infoHash":"67f8243118af7657a36d580b7cac5f302cb95e54","infoHashBuffer":{"type":"Buffer","data":[103,248,36,49,24,175,118,87,163,109,88,11,124,172,95,48,44,185,94,84]},"announce":[],"urlList":[]}}